<svg xmlns="http://www.w3.org/2000/svg" xmlns:xlink="http://www.w3.org/1999/xlink" width="323" height="372.312" viewBox="0 0 323 372.312">
  <defs>
    <radialGradient id="radial-gradient" cx="0.502" cy="0.5" r="0.462" gradientTransform="translate(0.002 -0.102) scale(0.997 1.205)" gradientUnits="objectBoundingBox">
      <stop offset="0.02" stop-color="#f3ec5a"/>
      <stop offset="1" stop-color="#e5bf30"/>
    </radialGradient>
  </defs>
  <g id="Layer_2" data-name="Layer 2" transform="translate(-33.832 -0.017)">
    <text id="Gold_Robots" data-name="Gold Robots" transform="translate(33.831 357.328)" fill="#f1d54b" font-size="59" font-family="SegoeUI-Semibold, Segoe UI" font-weight="600"><tspan x="0" y="0" letter-spacing="-0.05em">G</tspan><tspan y="0">old Rob</tspan><tspan y="0" letter-spacing="-0.05em">ot</tspan><tspan y="0">s</tspan></text>
    <path id="Path_92" data-name="Path 92" d="M66.27,203.6c.017,4.185,3.023,7.457,5.464,10.579a122.64,122.64,0,0,0,35.557,31.156,126.5,126.5,0,0,0,24.479,10.745c4,1.262,9.118,1.661,12.572,4.152a10.056,10.056,0,0,1,3.853,11.094c-3.454,10.2-15.478,5.5-22.653,3.205a149.575,149.575,0,0,1-23.583-9.865,140.263,140.263,0,0,1-37.084-28.5c-23.7-25.293-38.064-60.551-37.682-95.344.083-7.307,7.008-13.635,14.282-9.649,7.307,4,5.132,14.6,5.9,21.523a135.849,135.849,0,0,0,2.209,13.934c.864,3.986,1.594,8.736,3.654,12.323,3.521,6.211,12.638,6.327,16.591.5,2.375-3.5,1.528-6.925.432-10.7a101.55,101.55,0,0,1,14.15-86.193A102.707,102.707,0,0,1,161.6,38.983a101.128,101.128,0,0,1,34.975,3.986c3.953,1.163,7.955,3.355,12.007,4,7.357,1.179,13.452-6.344,10.4-13.253-1.644-3.737-5.015-5.281-8.636-6.626a128.816,128.816,0,0,0-13.535-4.2,121.583,121.583,0,0,0-94.1,15.4,126.335,126.335,0,0,0-10.895,7.822c-2.873,2.308-5.447,4.717-9.367,4.65A9.767,9.767,0,0,1,74.69,35.5c2.225-3.238,6.394-5.8,9.5-8.1,3.537-2.624,7.208-5.065,10.961-7.341A132.473,132.473,0,0,1,116.292,9.572,142.606,142.606,0,0,1,217,8.841,140.866,140.866,0,0,1,261.242,35.33a132.755,132.755,0,0,1,19.2,20.726c2.773,3.753,5.4,7.623,7.839,11.609,2.026,3.3,4.717,6.925,4.6,10.978-.249,8.071-10.164,12.323-16.176,6.925-3.205-2.873-5.065-7.855-7.424-11.426a124.157,124.157,0,0,0-8.2-11.094c-4.252-5.115-10.247-14.1-17.919-12.921-8,1.229-10.612,10.978-5.3,16.591C249.55,79.057,259.1,92.21,264.4,108.585a105.288,105.288,0,0,1,4.733,23.184c.614,6.925,2.242,17.205-6.178,20.078a9.564,9.564,0,0,1-9.583-2.059c-2.973-2.79-3.238-6.294-3.288-10.131a83.533,83.533,0,0,0-4.633-26.389A82.067,82.067,0,0,0,215.19,73.411c-27.286-19.1-64.005-20.145-92.005-1.893a83.293,83.293,0,0,0-9.6,7.274c-3.072,2.69-6.842,5.746-8.8,9.383-3.5,6.46,1.711,13.984,8.835,13.934,4.2-.033,6.66-2.558,9.4-5.364a64.631,64.631,0,0,1,10.7-8.785,62.237,62.237,0,0,1,20.892-8.736,61.372,61.372,0,0,1,11.044-1.329h0c.249-.033.482-.033.731-.05a59.886,59.886,0,0,1,9.134.415c.764.1,1.578.2,2.425.316.781.133,1.578.266,2.342.432a65.609,65.609,0,0,1,24.214,10.861,9.666,9.666,0,0,1-11.559,15.495,47.149,47.149,0,0,0-19.215-7.639,41.9,41.9,0,0,0-10.6-.116,43.182,43.182,0,1,0,45.754,56.283H178.288c-4.036,0-8.387.465-12.389-.133-9.134-1.378-11.808-13.851-3.321-18.252,4.019-2.076,10.048-1.079,14.4-1.079h9.732c8.985,0,17.953.066,26.937-.033,6.112-.066,13.336-.847,15.993,6.228,1.378,3.67.382,8.1-.349,11.825a61.8,61.8,0,0,1-4.75,14.365,63.677,63.677,0,0,1-44.276,35.108,59.306,59.306,0,0,1-12.107,1.229c-3.836.033-8.4-1.246-11.775,1.063-8.088,5.53-.747,17.288,6.975,18.335,9.4,1.279,20.1-.747,29.03-3.587a83.327,83.327,0,0,0,24.562-12.505q3.164-2.342,6.078-4.966c1.711-1.544,3.272-3.371,5.431-4.318a9.827,9.827,0,0,1,11.791,3.238c6.643,9.4-6.394,17.836-12.887,22.52a101.65,101.65,0,0,1-138.44-18.451c-2.574-3.139-4.733-7.656-8.486-9.549a9.94,9.94,0,0,0-14.183,8.785Zm57.794,6.311c7.424,4.667,16.906-2.79,14.465-11.061-1.229-4.168-5-5.962-8.221-8.387a62.441,62.441,0,0,1-24.994-52.878c.332-6.892,4.617-16.109-2.076-21.175a9.847,9.847,0,0,0-15.379,5.381c-8.968,33.232,7.639,70.15,36.2,88.119Zm182.367-93.932c-1.4-7.872-11.708-10.728-16.923-4.65-2.624,3.056-2.458,6.494-1.893,10.2a126.318,126.318,0,0,1,1.378,14.15,120.965,120.965,0,0,1-98.432,123.792c-6.56,1.246-15.993.415-18.551,8.2-2.209,6.709,3.355,13.17,10.2,12.721,7.639-.515,15.379-2.358,22.769-4.3A140.285,140.285,0,0,0,306.415,115.976Z" transform="translate(17.963 0)" fill="url(#radial-gradient)"/>
  </g>
</svg>
